<?xml version="1.0" encoding="UTF-8"?>
<svg xmlns="http://www.w3.org/2000/svg" width="860" height="385"
     font-family="'IBM Plex Mono', 'Courier New', monospace">

  <!-- outer background -->
  <rect width="860" height="385" fill="#c8c2b8"/>

  <!-- ═══ WINTER (base_x=10) ═══ -->
  <rect x="10" y="10" width="200" height="365" fill="#ecf2f8" rx="5"/>
  <text x="24" y="40" font-size="18" font-weight="600" fill="#1464b4">Winter</text>
  <text x="24" y="54" font-size="9" fill="#4a6a9c" letter-spacing="0.14em">BLUES · WHITES</text>
  <line x1="10" y1="63" x2="210" y2="63" stroke="#0c1e3820" stroke-width="1"/>
  <text x="24" y="75" font-size="8" fill="#4a6a9c" letter-spacing="0.16em">BACKGROUNDS</text>
  <rect x="24" y="82" width="44" height="20" rx="2" fill="#ecf2f8" stroke="#0c1e3840" stroke-width="1"/>
  <text x="74" y="96" font-size="10" fill="#0c1e38">paper</text>
  <rect x="24" y="106" width="44" height="20" rx="2" fill="#dce8f4" stroke="#0c1e3840" stroke-width="1"/>
  <text x="74" y="120" font-size="10" fill="#0c1e38">paper-2</text>
  <rect x="24" y="130" width="44" height="20" rx="2" fill="#c8d8ee" stroke="#0c1e3840" stroke-width="1"/>
  <text x="74" y="144" font-size="10" fill="#0c1e38">paper-3</text>
  <line x1="24" y1="155" x2="196" y2="155" stroke="#0c1e3820" stroke-width="1"/>
  <text x="24" y="165" font-size="8" fill="#4a6a9c" letter-spacing="0.16em">INKS</text>
  <rect x="24" y="172" width="44" height="20" rx="2" fill="#0c1e38" stroke="#0c1e3840" stroke-width="1"/>
  <text x="74" y="186" font-size="10" fill="#0c1e38">ink</text>
  <rect x="24" y="196" width="44" height="20" rx="2" fill="#1e3a62" stroke="#0c1e3840" stroke-width="1"/>
  <text x="74" y="210" font-size="10" fill="#0c1e38">ink-2</text>
  <rect x="24" y="220" width="44" height="20" rx="2" fill="#4a6a9c" stroke="#0c1e3840" stroke-width="1"/>
  <text x="74" y="234" font-size="10" fill="#0c1e38">ink-3</text>
  <rect x="24" y="244" width="44" height="20" rx="2" fill="#7a9ccc" stroke="#0c1e3840" stroke-width="1"/>
  <text x="74" y="258" font-size="10" fill="#0c1e38">ink-4</text>
  <line x1="24" y1="269" x2="196" y2="269" stroke="#0c1e3820" stroke-width="1"/>
  <text x="24" y="279" font-size="8" fill="#4a6a9c" letter-spacing="0.16em">ACCENTS</text>
  <rect x="24" y="286" width="44" height="20" rx="2" fill="#1464b4" stroke="#0c1e3840" stroke-width="1"/>
  <text x="74" y="300" font-size="10" fill="#0c1e38">solstice</text>
  <rect x="24" y="310" width="44" height="20" rx="2" fill="#3a8cc8" stroke="#0c1e3840" stroke-width="1"/>
  <text x="74" y="324" font-size="10" fill="#0c1e38">crossq</text>
  <rect x="24" y="334" width="44" height="20" rx="2" fill="#2a4a7a" stroke="#0c1e3840" stroke-width="1"/>
  <text x="74" y="348" font-size="10" fill="#0c1e38">nadir</text>

  <!-- ═══ SPRING — blush paper, rose accents, green crossq (base_x=220) ═══ -->
  <rect x="220" y="10" width="200" height="365" fill="#faf2f5" rx="5"/>
  <text x="234" y="40" font-size="18" font-weight="600" fill="#cc3472">Spring</text>
  <text x="234" y="54" font-size="9" fill="#8a4a6a" letter-spacing="0.14em">ROSE · GREENS</text>
  <line x1="220" y1="63" x2="420" y2="63" stroke="#2a102220" stroke-width="1"/>
  <text x="234" y="75" font-size="8" fill="#8a4a6a" letter-spacing="0.16em">BACKGROUNDS</text>
  <rect x="234" y="82" width="44" height="20" rx="2" fill="#faf2f5" stroke="#2a102240" stroke-width="1"/>
  <text x="284" y="96" font-size="10" fill="#2a1022">paper</text>
  <rect x="234" y="106" width="44" height="20" rx="2" fill="#f2e4ea" stroke="#2a102240" stroke-width="1"/>
  <text x="284" y="120" font-size="10" fill="#2a1022">paper-2</text>
  <rect x="234" y="130" width="44" height="20" rx="2" fill="#e8d2db" stroke="#2a102240" stroke-width="1"/>
  <text x="284" y="144" font-size="10" fill="#2a1022">paper-3</text>
  <line x1="234" y1="155" x2="406" y2="155" stroke="#2a102220" stroke-width="1"/>
  <text x="234" y="165" font-size="8" fill="#8a4a6a" letter-spacing="0.16em">INKS</text>
  <rect x="234" y="172" width="44" height="20" rx="2" fill="#2a1022" stroke="#2a102240" stroke-width="1"/>
  <text x="284" y="186" font-size="10" fill="#2a1022">ink</text>
  <rect x="234" y="196" width="44" height="20" rx="2" fill="#4c2040" stroke="#2a102240" stroke-width="1"/>
  <text x="284" y="210" font-size="10" fill="#2a1022">ink-2</text>
  <rect x="234" y="220" width="44" height="20" rx="2" fill="#8a4a6a" stroke="#2a102240" stroke-width="1"/>
  <text x="284" y="234" font-size="10" fill="#2a1022">ink-3</text>
  <rect x="234" y="244" width="44" height="20" rx="2" fill="#c48aaa" stroke="#2a102240" stroke-width="1"/>
  <text x="284" y="258" font-size="10" fill="#2a1022">ink-4</text>
  <line x1="234" y1="269" x2="406" y2="269" stroke="#2a102220" stroke-width="1"/>
  <text x="234" y="279" font-size="8" fill="#8a4a6a" letter-spacing="0.16em">ACCENTS</text>
  <rect x="234" y="286" width="44" height="20" rx="2" fill="#cc3472" stroke="#2a102240" stroke-width="1"/>
  <text x="284" y="300" font-size="10" fill="#2a1022">solstice</text>
  <rect x="234" y="310" width="44" height="20" rx="2" fill="#7ec020" stroke="#2a102240" stroke-width="1"/>
  <text x="284" y="324" font-size="10" fill="#2a1022">crossq</text>
  <rect x="234" y="334" width="44" height="20" rx="2" fill="#782050" stroke="#2a102240" stroke-width="1"/>
  <text x="284" y="348" font-size="10" fill="#2a1022">nadir</text>

  <!-- ═══ SUMMER — old Spring greens/yellows (base_x=430) ═══ -->
  <rect x="430" y="10" width="200" height="365" fill="#f0f7e4" rx="5"/>
  <text x="444" y="40" font-size="18" font-weight="600" fill="#5a9a10">Summer</text>
  <text x="444" y="54" font-size="9" fill="#567832" letter-spacing="0.14em">GREENS · YELLOWS</text>
  <line x1="430" y1="63" x2="630" y2="63" stroke="#16280820" stroke-width="1"/>
  <text x="444" y="75" font-size="8" fill="#567832" letter-spacing="0.16em">BACKGROUNDS</text>
  <rect x="444" y="82" width="44" height="20" rx="2" fill="#f0f7e4" stroke="#16280840" stroke-width="1"/>
  <text x="494" y="96" font-size="10" fill="#162808">paper</text>
  <rect x="444" y="106" width="44" height="20" rx="2" fill="#e2f0cc" stroke="#16280840" stroke-width="1"/>
  <text x="494" y="120" font-size="10" fill="#162808">paper-2</text>
  <rect x="444" y="130" width="44" height="20" rx="2" fill="#d0e8b0" stroke="#16280840" stroke-width="1"/>
  <text x="494" y="144" font-size="10" fill="#162808">paper-3</text>
  <line x1="444" y1="155" x2="616" y2="155" stroke="#16280820" stroke-width="1"/>
  <text x="444" y="165" font-size="8" fill="#567832" letter-spacing="0.16em">INKS</text>
  <rect x="444" y="172" width="44" height="20" rx="2" fill="#162808" stroke="#16280840" stroke-width="1"/>
  <text x="494" y="186" font-size="10" fill="#162808">ink</text>
  <rect x="444" y="196" width="44" height="20" rx="2" fill="#2c4e14" stroke="#16280840" stroke-width="1"/>
  <text x="494" y="210" font-size="10" fill="#162808">ink-2</text>
  <rect x="444" y="220" width="44" height="20" rx="2" fill="#567832" stroke="#16280840" stroke-width="1"/>
  <text x="494" y="234" font-size="10" fill="#162808">ink-3</text>
  <rect x="444" y="244" width="44" height="20" rx="2" fill="#88aa5a" stroke="#16280840" stroke-width="1"/>
  <text x="494" y="258" font-size="10" fill="#162808">ink-4</text>
  <line x1="444" y1="269" x2="616" y2="269" stroke="#16280820" stroke-width="1"/>
  <text x="444" y="279" font-size="8" fill="#567832" letter-spacing="0.16em">ACCENTS</text>
  <rect x="444" y="286" width="44" height="20" rx="2" fill="#5a9a10" stroke="#16280840" stroke-width="1"/>
  <text x="494" y="300" font-size="10" fill="#162808">solstice</text>
  <rect x="444" y="310" width="44" height="20" rx="2" fill="#b8c820" stroke="#16280840" stroke-width="1"/>
  <text x="494" y="324" font-size="10" fill="#162808">crossq</text>
  <rect x="444" y="334" width="44" height="20" rx="2" fill="#3a6010" stroke="#16280840" stroke-width="1"/>
  <text x="494" y="348" font-size="10" fill="#162808">nadir</text>

  <!-- ═══ FALL (base_x=640) ═══ -->
  <rect x="640" y="10" width="200" height="365" fill="#f8ead6" rx="5"/>
  <text x="654" y="40" font-size="18" font-weight="600" fill="#d85000">Fall</text>
  <text x="654" y="54" font-size="9" fill="#8a4a18" letter-spacing="0.14em">ORANGES · BROWNS</text>
  <line x1="640" y1="63" x2="840" y2="63" stroke="#280e0020" stroke-width="1"/>
  <text x="654" y="75" font-size="8" fill="#8a4a18" letter-spacing="0.16em">BACKGROUNDS</text>
  <rect x="654" y="82" width="44" height="20" rx="2" fill="#f8ead6" stroke="#280e0040" stroke-width="1"/>
  <text x="704" y="96" font-size="10" fill="#280e00">paper</text>
  <rect x="654" y="106" width="44" height="20" rx="2" fill="#f0d8b8" stroke="#280e0040" stroke-width="1"/>
  <text x="704" y="120" font-size="10" fill="#280e00">paper-2</text>
  <rect x="654" y="130" width="44" height="20" rx="2" fill="#e4c898" stroke="#280e0040" stroke-width="1"/>
  <text x="704" y="144" font-size="10" fill="#280e00">paper-3</text>
  <line x1="654" y1="155" x2="826" y2="155" stroke="#280e0020" stroke-width="1"/>
  <text x="654" y="165" font-size="8" fill="#8a4a18" letter-spacing="0.16em">INKS</text>
  <rect x="654" y="172" width="44" height="20" rx="2" fill="#280e00" stroke="#280e0040" stroke-width="1"/>
  <text x="704" y="186" font-size="10" fill="#280e00">ink</text>
  <rect x="654" y="196" width="44" height="20" rx="2" fill="#4a2008" stroke="#280e0040" stroke-width="1"/>
  <text x="704" y="210" font-size="10" fill="#280e00">ink-2</text>
  <rect x="654" y="220" width="44" height="20" rx="2" fill="#8a4a18" stroke="#280e0040" stroke-width="1"/>
  <text x="704" y="234" font-size="10" fill="#280e00">ink-3</text>
  <rect x="654" y="244" width="44" height="20" rx="2" fill="#c08840" stroke="#280e0040" stroke-width="1"/>
  <text x="704" y="258" font-size="10" fill="#280e00">ink-4</text>
  <line x1="654" y1="269" x2="826" y2="269" stroke="#280e0020" stroke-width="1"/>
  <text x="654" y="279" font-size="8" fill="#8a4a18" letter-spacing="0.16em">ACCENTS</text>
  <rect x="654" y="286" width="44" height="20" rx="2" fill="#d85000" stroke="#280e0040" stroke-width="1"/>
  <text x="704" y="300" font-size="10" fill="#280e00">solstice</text>
  <rect x="654" y="310" width="44" height="20" rx="2" fill="#a83000" stroke="#280e0040" stroke-width="1"/>
  <text x="704" y="324" font-size="10" fill="#280e00">crossq</text>
  <rect x="654" y="334" width="44" height="20" rx="2" fill="#6a2800" stroke="#280e0040" stroke-width="1"/>
  <text x="704" y="348" font-size="10" fill="#280e00">nadir</text>

</svg>
